<svg width="20" height="20" viewBox="0 0 20 20" fill="none" xmlns="http://www.w3.org/2000/svg">
<path d="M9.48063 1.9987C9.67277 1.53673 10.3272 1.53673 10.5194 1.9987L12.6453 7.11016C12.7263 7.30492 12.9095 7.43799 13.1198 7.45485L18.638 7.89724C19.1367 7.93722 19.339 8.55963 18.959 8.88514L14.7547 12.4866C14.5945 12.6238 14.5245 12.8391 14.5735 13.0443L15.8579 18.4292C15.974 18.9159 15.4446 19.3005 15.0176 19.0397L10.2932 16.1541C10.1132 16.0441 9.8868 16.0441 9.70679 16.1541L4.9824 19.0397C4.55541 19.3005 4.02595 18.9159 4.14205 18.4292L5.42653 13.0443C5.47548 12.8391 5.40552 12.6238 5.24532 12.4866L1.041 8.88514C0.661012 8.55964 0.863245 7.93722 1.36199 7.89724L6.88023 7.45485C7.09049 7.43799 7.27365 7.30492 7.35465 7.11016L9.48063 1.9987Z" stroke="#999999" stroke-width="1.5" stroke-linecap="round" stroke-linejoin="round"/>
</svg>
